<svg xmlns="http://www.w3.org/2000/svg" width="184" height="130" fill="none" viewBox="0 0 184 130"><circle cx="5.516" cy="124.948" r="3.902" stroke="#fff" stroke-width="2"/><circle cx="5.516" cy="100.986" r="3.902" stroke="#fff" stroke-width="2"/><circle cx="5.516" cy="77.024" r="3.902" stroke="#fff" stroke-width="2"/><circle cx="5.516" cy="53.062" r="3.902" stroke="#fff" stroke-width="2"/><circle cx="5.516" cy="29.101" r="3.902" stroke="#fff" stroke-width="2"/><circle cx="5.516" cy="5.139" r="3.902" stroke="#fff" stroke-width="2"/><circle cx="27.099" cy="124.948" r="3.902" stroke="#fff" stroke-width="2"/><circle cx="27.099" cy="100.986" r="3.902" stroke="#fff" stroke-width="2"/><circle cx="27.099" cy="77.024" r="3.902" stroke="#fff" stroke-width="2"/><circle cx="27.099" cy="53.062" r="3.902" stroke="#fff" stroke-width="2"/><circle cx="27.099" cy="29.101" r="3.902" stroke="#fff" stroke-width="2"/><circle cx="27.099" cy="5.139" r="3.902" stroke="#fff" stroke-width="2"/><circle cx="48.682" cy="124.948" r="3.902" stroke="#fff" stroke-width="2"/><circle cx="48.682" cy="100.986" r="3.902" stroke="#fff" stroke-width="2"/><circle cx="48.682" cy="77.024" r="3.902" stroke="#fff" stroke-width="2"/><circle cx="48.682" cy="53.062" r="3.902" stroke="#fff" stroke-width="2"/><circle cx="48.682" cy="29.101" r="3.902" stroke="#fff" stroke-width="2"/><circle cx="48.682" cy="5.139" r="3.902" stroke="#fff" stroke-width="2"/><circle cx="70.265" cy="124.948" r="3.902" stroke="#fff" stroke-width="2"/><circle cx="70.265" cy="100.986" r="3.902" stroke="#fff" stroke-width="2"/><circle cx="70.265" cy="77.024" r="3.902" stroke="#fff" stroke-width="2"/><circle cx="70.265" cy="53.062" r="3.902" stroke="#fff" stroke-width="2"/><circle cx="70.265" cy="29.101" r="3.902" stroke="#fff" stroke-width="2"/><circle cx="70.265" cy="5.139" r="3.902" stroke="#fff" stroke-width="2"/><circle cx="91.848" cy="124.948" r="3.902" stroke="#fff" stroke-width="2"/><circle cx="91.848" cy="100.986" r="3.902" stroke="#fff" stroke-width="2"/><circle cx="91.848" cy="77.024" r="3.902" stroke="#fff" stroke-width="2"/><circle cx="91.848" cy="53.062" r="3.902" stroke="#fff" stroke-width="2"/><circle cx="91.848" cy="29.101" r="3.902" stroke="#fff" stroke-width="2"/><circle cx="91.848" cy="5.139" r="3.902" stroke="#fff" stroke-width="2"/><circle cx="113.432" cy="124.948" r="3.902" stroke="#fff" stroke-width="2"/><circle cx="113.432" cy="100.986" r="3.902" stroke="#fff" stroke-width="2"/><circle cx="113.432" cy="77.024" r="3.902" stroke="#fff" stroke-width="2"/><circle cx="113.432" cy="53.062" r="3.902" stroke="#fff" stroke-width="2"/><circle cx="113.432" cy="29.101" r="3.902" stroke="#fff" stroke-width="2"/><circle cx="113.432" cy="5.139" r="3.902" stroke="#fff" stroke-width="2"/><circle cx="135.015" cy="124.948" r="3.902" stroke="#fff" stroke-width="2"/><circle cx="135.015" cy="100.986" r="3.902" stroke="#fff" stroke-width="2"/><circle cx="135.015" cy="77.024" r="3.902" stroke="#fff" stroke-width="2"/><circle cx="135.015" cy="53.062" r="3.902" stroke="#fff" stroke-width="2"/><circle cx="135.015" cy="29.101" r="3.902" stroke="#fff" stroke-width="2"/><circle cx="135.015" cy="5.139" r="3.902" stroke="#fff" stroke-width="2"/><circle cx="156.598" cy="124.948" r="3.902" stroke="#fff" stroke-width="2"/><circle cx="156.598" cy="100.986" r="3.902" stroke="#fff" stroke-width="2"/><circle cx="156.598" cy="77.024" r="3.902" stroke="#fff" stroke-width="2"/><circle cx="156.598" cy="53.062" r="3.902" stroke="#fff" stroke-width="2"/><circle cx="156.598" cy="29.101" r="3.902" stroke="#fff" stroke-width="2"/><circle cx="156.598" cy="5.139" r="3.902" stroke="#fff" stroke-width="2"/><circle cx="178.181" cy="124.948" r="3.902" stroke="#fff" stroke-width="2"/><circle cx="178.181" cy="100.986" r="3.902" stroke="#fff" stroke-width="2"/><circle cx="178.181" cy="77.024" r="3.902" stroke="#fff" stroke-width="2"/><circle cx="178.181" cy="53.062" r="3.902" stroke="#fff" stroke-width="2"/><circle cx="178.181" cy="29.101" r="3.902" stroke="#fff" stroke-width="2"/><circle cx="178.181" cy="5.139" r="3.902" stroke="#fff" stroke-width="2"/></svg>